<svg xmlns="http://www.w3.org/2000/svg" viewBox="0 0 500 500" width="100%" height="100%" fill="none">
  <rect width="500" height="500" fill="#ffffff"/>
  <circle cx="250" cy="240" r="150" fill="#f7f5f0" fill-opacity="0.6"/>
  <!-- Slender Arched Flacon -->
  <path d="M 210,180 C 210,170 290,170 290,180 L 305,360 C 305,370 195,370 195,360 Z" fill="#ffffff" stroke="#17324d" stroke-width="1.8"/>
  <path d="M 220,195 C 220,188 280,188 280,195 L 292,348 C 292,355 208,355 208,348 Z" fill="#f8fafb" stroke="#d9dee3" stroke-width="1"/>
  <!-- Label with framing -->
  <rect x="220" y="235" width="60" height="80" rx="4" fill="#ffffff" stroke="#d9dee3" stroke-width="1"/>
  <text x="250" y="265" font-family="serif" font-size="9" font-weight="bold" fill="#17324d" text-anchor="middle">SANTAL</text>
  <text x="250" y="280" font-family="sans-serif" font-size="7" fill="#2f5f8a" text-anchor="middle">BLANC</text>
  <text x="250" y="298" font-family="sans-serif" font-size="6" fill="#a8b1ba" text-anchor="middle">50 ML</text>
  <!-- Tall Metallic Cap -->
  <rect x="238" y="152" width="24" height="18" fill="#d9dee3" stroke="#a8b1ba" stroke-width="1"/>
  <rect x="228" y="115" width="44" height="38" rx="5" fill="#17324d" stroke="#10283e" stroke-width="1.5"/>
  <!-- Shadow -->
  <ellipse cx="250" cy="385" rx="70" ry="10" fill="#17324d" fill-opacity="0.07"/>
</svg>
